# xmcd
# 
# Track frame offsets:
#     150
#     21287
#     45280
#     64592
#     83005
#     104875
#     126392
#     148520
#     174240
#     189752
#     207750
#     228430
# 
# Disc length: 3267
# 
# Revision: 3
# Processed by: cddbd v1.5.2PL0 Copyright (c) Steve Scherf et al.
# Submitted via: fre:ac v1.0.27
# 
DISCID=9a0cc10c
DTITLE=Tab Benoit - Debbie Davies - Kenny Neal - Homesick For The Road
DYEAR=1999
DGENRE=Blues
TTITLE0=Deal With It
TTITLE1=Down In The Swamp
TTITLE2=Bop 'Til I Drop
TTITLE3=So Cold
TTITLE4=I Put A Spell On You
TTITLE5=Money
TTITLE6=Luberta
TTITLE7=I Can't Afford Myself
TTITLE8=I've Been Mistreated
TTITLE9=Night Life
TTITLE10=Still Called The Blues
TTITLE11=Homesick For The Road
EXTD=YEAR: 1999 ID3G:   0
EXTT0=
EXTT1=
EXTT2=
EXTT3=
EXTT4=
EXTT5=
EXTT6=
EXTT7=
EXTT8=
EXTT9=
EXTT10=
EXTT11=
PLAYORDER=
